<mxfile host="app.diagrams.net" modified="2024-06-23T14:08:53.466Z" agent="Mozilla/5.0 (Windows NT 10.0; Win64; x64) AppleWebKit/537.36 (KHTML, like Gecko) Chrome/126.0.0.0 Safari/537.36" etag="ZQnsA6uj7qt2v7abDIzX" version="21.5.0" type="github">
  <diagram id="C5RBs43oDa-KdzZeNtuy" name="Page-1">
    <mxGraphModel dx="1621" dy="446" grid="1" gridSize="10" guides="1" tooltips="1" connect="1" arrows="1" fold="1" page="1" pageScale="1" pageWidth="827" pageHeight="1169" math="0" shadow="0">
      <root>
        <mxCell id="WIyWlLk6GJQsqaUBKTNV-0" />
        <mxCell id="WIyWlLk6GJQsqaUBKTNV-1" parent="WIyWlLk6GJQsqaUBKTNV-0" />
        <mxCell id="7WYEXxG1KQD7PiVckBv7-1" value="&lt;blockquote style=&quot;margin: 0px 0px 0px 40px; border: none; padding: 0px; font-size: 16px;&quot;&gt;&lt;b&gt;Netflix System Design&lt;/b&gt;&lt;/blockquote&gt;" style="text;html=1;strokeColor=default;fillColor=none;align=left;verticalAlign=middle;whiteSpace=wrap;rounded=0;dashed=1;" parent="WIyWlLk6GJQsqaUBKTNV-1" vertex="1">
          <mxGeometry x="-510" y="20" width="240" height="50" as="geometry" />
        </mxCell>
        <mxCell id="gQ6KmcZ8m3Q4oCMt2bY5-0" value="&lt;h1 style=&quot;font-size: 13px;&quot;&gt;Requirements&lt;/h1&gt;&lt;p style=&quot;font-size: 13px;&quot;&gt;&lt;/p&gt;&lt;ol style=&quot;font-size: 13px;&quot;&gt;&lt;li style=&quot;font-size: 13px;&quot;&gt;User can search movies or web series&lt;/li&gt;&lt;ol&gt;&lt;li style=&quot;font-size: 13px;&quot;&gt;by actor&lt;/li&gt;&lt;li style=&quot;font-size: 13px;&quot;&gt;by movie name&lt;/li&gt;&lt;li style=&quot;font-size: 13px;&quot;&gt;by gernes&lt;/li&gt;&lt;/ol&gt;&lt;li style=&quot;font-size: 13px;&quot;&gt;User can filter by category / type&lt;/li&gt;&lt;ol&gt;&lt;li style=&quot;font-size: 13px;&quot;&gt;by gernes&lt;/li&gt;&lt;/ol&gt;&lt;li style=&quot;font-size: 13px;&quot;&gt;&lt;b&gt;User can see the preview and details.&lt;/b&gt;&lt;/li&gt;&lt;ol&gt;&lt;li style=&quot;font-size: 13px;&quot;&gt;&lt;b&gt;pop - up with thumbnail short preview on hover&lt;/b&gt;&lt;/li&gt;&lt;li style=&quot;font-size: 13px;&quot;&gt;&lt;b&gt;on extend more details&lt;/b&gt;&lt;/li&gt;&lt;/ol&gt;&lt;li style=&quot;font-size: 13px;&quot;&gt;&lt;b&gt;Top 10 recommendation&lt;/b&gt;&lt;/li&gt;&lt;ol&gt;&lt;li style=&quot;font-size: 13px;&quot;&gt;&lt;b&gt;carousel&lt;/b&gt;&lt;/li&gt;&lt;/ol&gt;&lt;li style=&quot;font-size: 13px;&quot;&gt;&lt;b&gt;Rows of treading movies / web series&lt;/b&gt;&lt;/li&gt;&lt;ol&gt;&lt;li style=&quot;font-size: 13px;&quot;&gt;&lt;b&gt;carousel&lt;/b&gt;&lt;/li&gt;&lt;/ol&gt;&lt;li style=&quot;font-size: 13px;&quot;&gt;User can login / sign up&lt;/li&gt;&lt;li style=&quot;font-size: 13px;&quot;&gt;&lt;b&gt;User play and resume&amp;nbsp;&lt;/b&gt;&lt;/li&gt;&lt;li style=&quot;font-size: 13px;&quot;&gt;User can mark favorite movie&amp;nbsp;&amp;nbsp;&lt;/li&gt;&lt;ol&gt;&lt;li style=&quot;font-size: 13px;&quot;&gt;watch list&lt;/li&gt;&lt;li style=&quot;font-size: 13px;&quot;&gt;user can like or dislike a movie&lt;/li&gt;&lt;/ol&gt;&lt;li style=&quot;font-size: 13px;&quot;&gt;Login page&lt;/li&gt;&lt;li style=&quot;font-size: 13px;&quot;&gt;&lt;b&gt;Main preview page&lt;/b&gt;&lt;/li&gt;&lt;li style=&quot;font-size: 13px;&quot;&gt;&lt;b&gt;View page&lt;/b&gt;&lt;/li&gt;&lt;li style=&quot;font-size: 13px;&quot;&gt;User can configure settings&lt;/li&gt;&lt;li style=&quot;font-size: 13px;&quot;&gt;User can create multiple accounts&lt;/li&gt;&lt;/ol&gt;&lt;p style=&quot;font-size: 13px;&quot;&gt;&lt;/p&gt;" style="text;html=1;strokeColor=default;fillColor=none;spacing=5;spacingTop=-20;whiteSpace=wrap;overflow=hidden;rounded=0;fontSize=13;align=left;dashed=1;" vertex="1" parent="WIyWlLk6GJQsqaUBKTNV-1">
          <mxGeometry x="-520" y="120" width="240" height="500" as="geometry" />
        </mxCell>
        <mxCell id="gQ6KmcZ8m3Q4oCMt2bY5-1" value="&lt;h1 style=&quot;font-size: 13px;&quot;&gt;Non-functional Requirements&lt;/h1&gt;&lt;p style=&quot;font-size: 13px;&quot;&gt;&lt;/p&gt;&lt;ol style=&quot;font-size: 13px;&quot;&gt;&lt;li style=&quot;font-size: 13px;&quot;&gt;Fast loading&lt;/li&gt;&lt;li style=&quot;font-size: 13px;&quot;&gt;Optimized performance&lt;/li&gt;&lt;li style=&quot;font-size: 13px;&quot;&gt;High scalable&lt;/li&gt;&lt;li style=&quot;font-size: 13px;&quot;&gt;Based on user internet bandwidth select resolution.&lt;/li&gt;&lt;li style=&quot;font-size: 13px;&quot;&gt;Multi-language support&lt;/li&gt;&lt;li style=&quot;font-size: 13px;&quot;&gt;Accessibility&lt;/li&gt;&lt;li style=&quot;font-size: 13px;&quot;&gt;Multi device support&amp;nbsp;&lt;/li&gt;&lt;li style=&quot;font-size: 13px;&quot;&gt;Security&lt;/li&gt;&lt;li style=&quot;font-size: 13px;&quot;&gt;configurable UI&lt;/li&gt;&lt;li style=&quot;font-size: 13px;&quot;&gt;Images, promos should be optimized based on viewport&lt;/li&gt;&lt;/ol&gt;&lt;p style=&quot;font-size: 13px;&quot;&gt;&lt;/p&gt;" style="text;html=1;strokeColor=default;fillColor=none;spacing=5;spacingTop=-20;whiteSpace=wrap;overflow=hidden;rounded=0;fontSize=13;align=left;dashed=1;" vertex="1" parent="WIyWlLk6GJQsqaUBKTNV-1">
          <mxGeometry x="-270" y="120" width="250" height="230" as="geometry" />
        </mxCell>
        <mxCell id="gQ6KmcZ8m3Q4oCMt2bY5-9" value="" style="group" vertex="1" connectable="0" parent="WIyWlLk6GJQsqaUBKTNV-1">
          <mxGeometry x="-500" y="650" width="440" height="200" as="geometry" />
        </mxCell>
        <mxCell id="gQ6KmcZ8m3Q4oCMt2bY5-5" value="App overview" style="text;html=1;strokeColor=default;fillColor=none;align=center;verticalAlign=top;whiteSpace=wrap;rounded=0;fontStyle=1;fontSize=17;" vertex="1" parent="gQ6KmcZ8m3Q4oCMt2bY5-9">
          <mxGeometry width="440" height="200" as="geometry" />
        </mxCell>
        <mxCell id="gQ6KmcZ8m3Q4oCMt2bY5-6" value="Login / Sign up page" style="rounded=1;whiteSpace=wrap;html=1;labelBackgroundColor=none;fillColor=#FF66B3;fontStyle=1" vertex="1" parent="gQ6KmcZ8m3Q4oCMt2bY5-9">
          <mxGeometry x="20" y="90" width="120" height="60" as="geometry" />
        </mxCell>
        <mxCell id="gQ6KmcZ8m3Q4oCMt2bY5-7" value="Main / Landing Page" style="rounded=1;whiteSpace=wrap;html=1;labelBackgroundColor=none;fillColor=#99FF99;fontStyle=1" vertex="1" parent="gQ6KmcZ8m3Q4oCMt2bY5-9">
          <mxGeometry x="160" y="90" width="120" height="60" as="geometry" />
        </mxCell>
        <mxCell id="gQ6KmcZ8m3Q4oCMt2bY5-8" value="Profile page" style="rounded=1;whiteSpace=wrap;html=1;fillColor=#FF3399;fontStyle=1" vertex="1" parent="gQ6KmcZ8m3Q4oCMt2bY5-9">
          <mxGeometry x="300" y="90" width="120" height="60" as="geometry" />
        </mxCell>
        <mxCell id="gQ6KmcZ8m3Q4oCMt2bY5-10" value="" style="whiteSpace=wrap;html=1;aspect=fixed;" vertex="1" parent="WIyWlLk6GJQsqaUBKTNV-1">
          <mxGeometry x="-520" y="910" width="540" height="540" as="geometry" />
        </mxCell>
        <mxCell id="gQ6KmcZ8m3Q4oCMt2bY5-11" value="header" style="rounded=0;whiteSpace=wrap;html=1;" vertex="1" parent="WIyWlLk6GJQsqaUBKTNV-1">
          <mxGeometry x="-520" y="910" width="540" height="50" as="geometry" />
        </mxCell>
        <mxCell id="gQ6KmcZ8m3Q4oCMt2bY5-12" value="Footer" style="rounded=0;whiteSpace=wrap;html=1;" vertex="1" parent="WIyWlLk6GJQsqaUBKTNV-1">
          <mxGeometry x="-520" y="1400" width="540" height="50" as="geometry" />
        </mxCell>
        <mxCell id="gQ6KmcZ8m3Q4oCMt2bY5-13" value="Banner" style="rounded=0;whiteSpace=wrap;html=1;" vertex="1" parent="WIyWlLk6GJQsqaUBKTNV-1">
          <mxGeometry x="-520" y="960" width="540" height="170" as="geometry" />
        </mxCell>
        <mxCell id="gQ6KmcZ8m3Q4oCMt2bY5-14" value="" style="rounded=0;whiteSpace=wrap;html=1;" vertex="1" parent="WIyWlLk6GJQsqaUBKTNV-1">
          <mxGeometry x="-520" y="1170" width="540" height="80" as="geometry" />
        </mxCell>
        <mxCell id="gQ6KmcZ8m3Q4oCMt2bY5-15" value="" style="whiteSpace=wrap;html=1;aspect=fixed;" vertex="1" parent="WIyWlLk6GJQsqaUBKTNV-1">
          <mxGeometry x="-473.5" y="1180" width="60" height="60" as="geometry" />
        </mxCell>
        <mxCell id="gQ6KmcZ8m3Q4oCMt2bY5-16" value="" style="whiteSpace=wrap;html=1;aspect=fixed;" vertex="1" parent="WIyWlLk6GJQsqaUBKTNV-1">
          <mxGeometry x="-330" y="1180" width="60" height="60" as="geometry" />
        </mxCell>
        <mxCell id="gQ6KmcZ8m3Q4oCMt2bY5-17" value="" style="whiteSpace=wrap;html=1;aspect=fixed;" vertex="1" parent="WIyWlLk6GJQsqaUBKTNV-1">
          <mxGeometry x="-190" y="1180" width="60" height="60" as="geometry" />
        </mxCell>
        <mxCell id="gQ6KmcZ8m3Q4oCMt2bY5-44" style="edgeStyle=orthogonalEdgeStyle;rounded=0;orthogonalLoop=1;jettySize=auto;html=1;entryX=0;entryY=0.5;entryDx=0;entryDy=0;" edge="1" parent="WIyWlLk6GJQsqaUBKTNV-1" source="gQ6KmcZ8m3Q4oCMt2bY5-18" target="gQ6KmcZ8m3Q4oCMt2bY5-40">
          <mxGeometry relative="1" as="geometry" />
        </mxCell>
        <mxCell id="gQ6KmcZ8m3Q4oCMt2bY5-45" value="On Hover" style="edgeLabel;html=1;align=center;verticalAlign=middle;resizable=0;points=[];" vertex="1" connectable="0" parent="gQ6KmcZ8m3Q4oCMt2bY5-44">
          <mxGeometry x="-0.2468" y="-4" relative="1" as="geometry">
            <mxPoint as="offset" />
          </mxGeometry>
        </mxCell>
        <mxCell id="gQ6KmcZ8m3Q4oCMt2bY5-63" style="edgeStyle=orthogonalEdgeStyle;rounded=0;orthogonalLoop=1;jettySize=auto;html=1;entryX=1;entryY=0.5;entryDx=0;entryDy=0;" edge="1" parent="WIyWlLk6GJQsqaUBKTNV-1" source="gQ6KmcZ8m3Q4oCMt2bY5-18" target="gQ6KmcZ8m3Q4oCMt2bY5-56">
          <mxGeometry relative="1" as="geometry">
            <Array as="points">
              <mxPoint x="-30" y="1270" />
              <mxPoint x="50" y="1270" />
              <mxPoint x="50" y="1545" />
            </Array>
          </mxGeometry>
        </mxCell>
        <mxCell id="gQ6KmcZ8m3Q4oCMt2bY5-64" value="On Click" style="edgeLabel;html=1;align=center;verticalAlign=middle;resizable=0;points=[];" vertex="1" connectable="0" parent="gQ6KmcZ8m3Q4oCMt2bY5-63">
          <mxGeometry x="0.0617" y="2" relative="1" as="geometry">
            <mxPoint as="offset" />
          </mxGeometry>
        </mxCell>
        <mxCell id="gQ6KmcZ8m3Q4oCMt2bY5-18" value="movie card" style="whiteSpace=wrap;html=1;aspect=fixed;" vertex="1" parent="WIyWlLk6GJQsqaUBKTNV-1">
          <mxGeometry x="-60" y="1180" width="60" height="60" as="geometry" />
        </mxCell>
        <mxCell id="gQ6KmcZ8m3Q4oCMt2bY5-19" value="Top 10&amp;nbsp;" style="text;html=1;strokeColor=none;fillColor=none;align=center;verticalAlign=middle;whiteSpace=wrap;rounded=0;" vertex="1" parent="WIyWlLk6GJQsqaUBKTNV-1">
          <mxGeometry x="-520" y="1141" width="60" height="30" as="geometry" />
        </mxCell>
        <mxCell id="gQ6KmcZ8m3Q4oCMt2bY5-21" value="" style="rounded=0;whiteSpace=wrap;html=1;" vertex="1" parent="WIyWlLk6GJQsqaUBKTNV-1">
          <mxGeometry x="-520" y="1291" width="540" height="80" as="geometry" />
        </mxCell>
        <mxCell id="gQ6KmcZ8m3Q4oCMt2bY5-22" value="" style="whiteSpace=wrap;html=1;aspect=fixed;" vertex="1" parent="WIyWlLk6GJQsqaUBKTNV-1">
          <mxGeometry x="-473.5" y="1301" width="60" height="60" as="geometry" />
        </mxCell>
        <mxCell id="gQ6KmcZ8m3Q4oCMt2bY5-23" value="" style="whiteSpace=wrap;html=1;aspect=fixed;" vertex="1" parent="WIyWlLk6GJQsqaUBKTNV-1">
          <mxGeometry x="-330" y="1301" width="60" height="60" as="geometry" />
        </mxCell>
        <mxCell id="gQ6KmcZ8m3Q4oCMt2bY5-24" value="" style="whiteSpace=wrap;html=1;aspect=fixed;" vertex="1" parent="WIyWlLk6GJQsqaUBKTNV-1">
          <mxGeometry x="-190" y="1301" width="60" height="60" as="geometry" />
        </mxCell>
        <mxCell id="gQ6KmcZ8m3Q4oCMt2bY5-25" value="Movie card" style="whiteSpace=wrap;html=1;aspect=fixed;" vertex="1" parent="WIyWlLk6GJQsqaUBKTNV-1">
          <mxGeometry x="-60" y="1301" width="60" height="60" as="geometry" />
        </mxCell>
        <mxCell id="gQ6KmcZ8m3Q4oCMt2bY5-28" style="edgeStyle=orthogonalEdgeStyle;rounded=0;orthogonalLoop=1;jettySize=auto;html=1;" edge="1" parent="WIyWlLk6GJQsqaUBKTNV-1" source="gQ6KmcZ8m3Q4oCMt2bY5-26" target="gQ6KmcZ8m3Q4oCMt2bY5-27">
          <mxGeometry relative="1" as="geometry" />
        </mxCell>
        <mxCell id="gQ6KmcZ8m3Q4oCMt2bY5-46" value="On Click" style="edgeLabel;html=1;align=center;verticalAlign=middle;resizable=0;points=[];" vertex="1" connectable="0" parent="gQ6KmcZ8m3Q4oCMt2bY5-28">
          <mxGeometry x="-0.221" y="-1" relative="1" as="geometry">
            <mxPoint as="offset" />
          </mxGeometry>
        </mxCell>
        <mxCell id="gQ6KmcZ8m3Q4oCMt2bY5-26" value="Profile" style="ellipse;whiteSpace=wrap;html=1;aspect=fixed;fontSize=6;" vertex="1" parent="WIyWlLk6GJQsqaUBKTNV-1">
          <mxGeometry x="-20" y="920" width="30" height="30" as="geometry" />
        </mxCell>
        <mxCell id="gQ6KmcZ8m3Q4oCMt2bY5-27" value="" style="whiteSpace=wrap;html=1;aspect=fixed;" vertex="1" parent="WIyWlLk6GJQsqaUBKTNV-1">
          <mxGeometry x="170" y="872.5" width="157.5" height="157.5" as="geometry" />
        </mxCell>
        <mxCell id="gQ6KmcZ8m3Q4oCMt2bY5-47" style="edgeStyle=orthogonalEdgeStyle;rounded=0;orthogonalLoop=1;jettySize=auto;html=1;entryX=1;entryY=0.5;entryDx=0;entryDy=0;" edge="1" parent="WIyWlLk6GJQsqaUBKTNV-1" source="gQ6KmcZ8m3Q4oCMt2bY5-33" target="gQ6KmcZ8m3Q4oCMt2bY5-8">
          <mxGeometry relative="1" as="geometry" />
        </mxCell>
        <mxCell id="gQ6KmcZ8m3Q4oCMt2bY5-33" value="Account" style="rounded=0;whiteSpace=wrap;html=1;" vertex="1" parent="WIyWlLk6GJQsqaUBKTNV-1">
          <mxGeometry x="173.75" y="893" width="150" height="30" as="geometry" />
        </mxCell>
        <mxCell id="gQ6KmcZ8m3Q4oCMt2bY5-34" value="Help &amp;amp; Support" style="rounded=0;whiteSpace=wrap;html=1;" vertex="1" parent="WIyWlLk6GJQsqaUBKTNV-1">
          <mxGeometry x="173.75" y="979" width="150" height="30" as="geometry" />
        </mxCell>
        <mxCell id="gQ6KmcZ8m3Q4oCMt2bY5-35" value="Settings" style="rounded=0;whiteSpace=wrap;html=1;" vertex="1" parent="WIyWlLk6GJQsqaUBKTNV-1">
          <mxGeometry x="173.75" y="936" width="150" height="30" as="geometry" />
        </mxCell>
        <mxCell id="gQ6KmcZ8m3Q4oCMt2bY5-36" value="Category" style="rounded=0;whiteSpace=wrap;html=1;" vertex="1" parent="WIyWlLk6GJQsqaUBKTNV-1">
          <mxGeometry x="-510" y="925" width="70" height="15" as="geometry" />
        </mxCell>
        <mxCell id="gQ6KmcZ8m3Q4oCMt2bY5-37" value="Gerne" style="rounded=0;whiteSpace=wrap;html=1;" vertex="1" parent="WIyWlLk6GJQsqaUBKTNV-1">
          <mxGeometry x="-425" y="925" width="70" height="15" as="geometry" />
        </mxCell>
        <mxCell id="gQ6KmcZ8m3Q4oCMt2bY5-38" value="Search" style="rounded=0;whiteSpace=wrap;html=1;" vertex="1" parent="WIyWlLk6GJQsqaUBKTNV-1">
          <mxGeometry x="-140" y="921" width="100" height="29" as="geometry" />
        </mxCell>
        <mxCell id="gQ6KmcZ8m3Q4oCMt2bY5-86" style="edgeStyle=orthogonalEdgeStyle;rounded=0;orthogonalLoop=1;jettySize=auto;html=1;entryX=1.001;entryY=0.105;entryDx=0;entryDy=0;entryPerimeter=0;" edge="1" parent="WIyWlLk6GJQsqaUBKTNV-1" source="gQ6KmcZ8m3Q4oCMt2bY5-39" target="gQ6KmcZ8m3Q4oCMt2bY5-70">
          <mxGeometry relative="1" as="geometry" />
        </mxCell>
        <mxCell id="gQ6KmcZ8m3Q4oCMt2bY5-39" value="" style="rounded=0;whiteSpace=wrap;html=1;verticalAlign=top;" vertex="1" parent="WIyWlLk6GJQsqaUBKTNV-1">
          <mxGeometry x="160" y="1160" width="260" height="230" as="geometry" />
        </mxCell>
        <mxCell id="gQ6KmcZ8m3Q4oCMt2bY5-40" value="Preview" style="rounded=0;whiteSpace=wrap;html=1;" vertex="1" parent="WIyWlLk6GJQsqaUBKTNV-1">
          <mxGeometry x="160" y="1161" width="260" height="106" as="geometry" />
        </mxCell>
        <mxCell id="gQ6KmcZ8m3Q4oCMt2bY5-41" value="Actor" style="shape=umlActor;verticalLabelPosition=bottom;verticalAlign=top;html=1;outlineConnect=0;" vertex="1" parent="WIyWlLk6GJQsqaUBKTNV-1">
          <mxGeometry x="350" y="1179" width="30" height="60" as="geometry" />
        </mxCell>
        <mxCell id="gQ6KmcZ8m3Q4oCMt2bY5-42" value="Content / movie information" style="rounded=0;whiteSpace=wrap;html=1;" vertex="1" parent="WIyWlLk6GJQsqaUBKTNV-1">
          <mxGeometry x="160" y="1330" width="260" height="60" as="geometry" />
        </mxCell>
        <mxCell id="gQ6KmcZ8m3Q4oCMt2bY5-43" value="" style="rounded=0;whiteSpace=wrap;html=1;verticalAlign=middle;" vertex="1" parent="WIyWlLk6GJQsqaUBKTNV-1">
          <mxGeometry x="160" y="1290" width="260" height="30" as="geometry" />
        </mxCell>
        <mxCell id="gQ6KmcZ8m3Q4oCMt2bY5-48" value="Add" style="rounded=0;whiteSpace=wrap;html=1;" vertex="1" parent="WIyWlLk6GJQsqaUBKTNV-1">
          <mxGeometry x="170" y="1295" width="76" height="20" as="geometry" />
        </mxCell>
        <mxCell id="gQ6KmcZ8m3Q4oCMt2bY5-49" value="Rate" style="rounded=0;whiteSpace=wrap;html=1;" vertex="1" parent="WIyWlLk6GJQsqaUBKTNV-1">
          <mxGeometry x="251.5" y="1295" width="76" height="20" as="geometry" />
        </mxCell>
        <mxCell id="gQ6KmcZ8m3Q4oCMt2bY5-50" value="Share" style="rounded=0;whiteSpace=wrap;html=1;" vertex="1" parent="WIyWlLk6GJQsqaUBKTNV-1">
          <mxGeometry x="338" y="1295" width="76" height="20" as="geometry" />
        </mxCell>
        <mxCell id="gQ6KmcZ8m3Q4oCMt2bY5-51" value="Currently watching" style="text;html=1;strokeColor=none;fillColor=none;align=center;verticalAlign=middle;whiteSpace=wrap;rounded=0;" vertex="1" parent="WIyWlLk6GJQsqaUBKTNV-1">
          <mxGeometry x="-520" y="1260" width="120" height="30" as="geometry" />
        </mxCell>
        <mxCell id="gQ6KmcZ8m3Q4oCMt2bY5-52" value="Play" style="rounded=0;whiteSpace=wrap;html=1;" vertex="1" parent="WIyWlLk6GJQsqaUBKTNV-1">
          <mxGeometry x="-500" y="1040" width="110" height="30" as="geometry" />
        </mxCell>
        <mxCell id="gQ6KmcZ8m3Q4oCMt2bY5-53" value="Info" style="ellipse;whiteSpace=wrap;html=1;aspect=fixed;" vertex="1" parent="WIyWlLk6GJQsqaUBKTNV-1">
          <mxGeometry x="-360" y="1035" width="40" height="40" as="geometry" />
        </mxCell>
        <mxCell id="gQ6KmcZ8m3Q4oCMt2bY5-54" value="Actor" style="shape=umlActor;verticalLabelPosition=bottom;verticalAlign=top;html=1;outlineConnect=0;" vertex="1" parent="WIyWlLk6GJQsqaUBKTNV-1">
          <mxGeometry x="-90" y="1015" width="30" height="60" as="geometry" />
        </mxCell>
        <mxCell id="gQ6KmcZ8m3Q4oCMt2bY5-55" value="" style="rounded=0;whiteSpace=wrap;html=1;" vertex="1" parent="WIyWlLk6GJQsqaUBKTNV-1">
          <mxGeometry x="-520" y="1520" width="550" height="310" as="geometry" />
        </mxCell>
        <mxCell id="gQ6KmcZ8m3Q4oCMt2bY5-56" value="Header" style="rounded=0;whiteSpace=wrap;html=1;" vertex="1" parent="WIyWlLk6GJQsqaUBKTNV-1">
          <mxGeometry x="-520" y="1520" width="550" height="50" as="geometry" />
        </mxCell>
        <mxCell id="gQ6KmcZ8m3Q4oCMt2bY5-57" value="Footer" style="rounded=0;whiteSpace=wrap;html=1;" vertex="1" parent="WIyWlLk6GJQsqaUBKTNV-1">
          <mxGeometry x="-520" y="1780" width="550" height="50" as="geometry" />
        </mxCell>
        <mxCell id="gQ6KmcZ8m3Q4oCMt2bY5-58" value="video player" style="rounded=0;whiteSpace=wrap;html=1;verticalAlign=top;" vertex="1" parent="WIyWlLk6GJQsqaUBKTNV-1">
          <mxGeometry x="-510" y="1590" width="530" height="170" as="geometry" />
        </mxCell>
        <mxCell id="gQ6KmcZ8m3Q4oCMt2bY5-59" value="" style="rounded=0;whiteSpace=wrap;html=1;" vertex="1" parent="WIyWlLk6GJQsqaUBKTNV-1">
          <mxGeometry x="-170" y="1716" width="190" height="44" as="geometry" />
        </mxCell>
        <mxCell id="gQ6KmcZ8m3Q4oCMt2bY5-60" value="play / pause" style="rounded=0;whiteSpace=wrap;html=1;" vertex="1" parent="WIyWlLk6GJQsqaUBKTNV-1">
          <mxGeometry x="-305" y="1720" width="120" height="40" as="geometry" />
        </mxCell>
        <mxCell id="gQ6KmcZ8m3Q4oCMt2bY5-61" value="Settings" style="rounded=0;whiteSpace=wrap;html=1;" vertex="1" parent="WIyWlLk6GJQsqaUBKTNV-1">
          <mxGeometry x="-50" y="1730" width="65" height="22" as="geometry" />
        </mxCell>
        <mxCell id="gQ6KmcZ8m3Q4oCMt2bY5-62" value="Subtitle" style="rounded=0;whiteSpace=wrap;html=1;" vertex="1" parent="WIyWlLk6GJQsqaUBKTNV-1">
          <mxGeometry x="-125" y="1730" width="65" height="22" as="geometry" />
        </mxCell>
        <mxCell id="gQ6KmcZ8m3Q4oCMt2bY5-65" value="Main Page" style="text;html=1;align=center;verticalAlign=middle;resizable=0;points=[];autosize=1;strokeColor=none;fillColor=none;" vertex="1" parent="WIyWlLk6GJQsqaUBKTNV-1">
          <mxGeometry x="-310" y="878" width="80" height="30" as="geometry" />
        </mxCell>
        <mxCell id="gQ6KmcZ8m3Q4oCMt2bY5-66" value="Drop down" style="text;html=1;align=center;verticalAlign=middle;resizable=0;points=[];autosize=1;strokeColor=none;fillColor=none;" vertex="1" parent="WIyWlLk6GJQsqaUBKTNV-1">
          <mxGeometry x="200" y="848" width="80" height="30" as="geometry" />
        </mxCell>
        <mxCell id="gQ6KmcZ8m3Q4oCMt2bY5-67" value="Preview page" style="text;html=1;strokeColor=none;fillColor=none;align=center;verticalAlign=middle;whiteSpace=wrap;rounded=0;" vertex="1" parent="WIyWlLk6GJQsqaUBKTNV-1">
          <mxGeometry x="249.5" y="1131" width="80" height="19" as="geometry" />
        </mxCell>
        <mxCell id="gQ6KmcZ8m3Q4oCMt2bY5-68" value="Watch / view page" style="text;html=1;align=center;verticalAlign=middle;resizable=0;points=[];autosize=1;strokeColor=none;fillColor=none;" vertex="1" parent="WIyWlLk6GJQsqaUBKTNV-1">
          <mxGeometry x="-305" y="1490" width="120" height="30" as="geometry" />
        </mxCell>
        <mxCell id="gQ6KmcZ8m3Q4oCMt2bY5-70" value="" style="rounded=0;whiteSpace=wrap;html=1;" vertex="1" parent="WIyWlLk6GJQsqaUBKTNV-1">
          <mxGeometry x="160" y="1475" width="260" height="455" as="geometry" />
        </mxCell>
        <mxCell id="gQ6KmcZ8m3Q4oCMt2bY5-77" value="Preview" style="rounded=0;whiteSpace=wrap;html=1;" vertex="1" parent="WIyWlLk6GJQsqaUBKTNV-1">
          <mxGeometry x="159.5" y="1475" width="260" height="106" as="geometry" />
        </mxCell>
        <mxCell id="gQ6KmcZ8m3Q4oCMt2bY5-78" value="Content / movie information" style="rounded=0;whiteSpace=wrap;html=1;" vertex="1" parent="WIyWlLk6GJQsqaUBKTNV-1">
          <mxGeometry x="159.5" y="1644" width="260" height="60" as="geometry" />
        </mxCell>
        <mxCell id="gQ6KmcZ8m3Q4oCMt2bY5-79" value="" style="rounded=0;whiteSpace=wrap;html=1;verticalAlign=middle;" vertex="1" parent="WIyWlLk6GJQsqaUBKTNV-1">
          <mxGeometry x="159.5" y="1604" width="260" height="30" as="geometry" />
        </mxCell>
        <mxCell id="gQ6KmcZ8m3Q4oCMt2bY5-80" value="Add" style="rounded=0;whiteSpace=wrap;html=1;" vertex="1" parent="WIyWlLk6GJQsqaUBKTNV-1">
          <mxGeometry x="169.5" y="1609" width="76" height="20" as="geometry" />
        </mxCell>
        <mxCell id="gQ6KmcZ8m3Q4oCMt2bY5-81" value="Rate" style="rounded=0;whiteSpace=wrap;html=1;" vertex="1" parent="WIyWlLk6GJQsqaUBKTNV-1">
          <mxGeometry x="251" y="1609" width="76" height="20" as="geometry" />
        </mxCell>
        <mxCell id="gQ6KmcZ8m3Q4oCMt2bY5-82" value="Share" style="rounded=0;whiteSpace=wrap;html=1;" vertex="1" parent="WIyWlLk6GJQsqaUBKTNV-1">
          <mxGeometry x="337.5" y="1609" width="76" height="20" as="geometry" />
        </mxCell>
        <mxCell id="gQ6KmcZ8m3Q4oCMt2bY5-83" value="Episode list" style="rounded=0;whiteSpace=wrap;html=1;" vertex="1" parent="WIyWlLk6GJQsqaUBKTNV-1">
          <mxGeometry x="159" y="1724" width="260" height="60" as="geometry" />
        </mxCell>
        <mxCell id="gQ6KmcZ8m3Q4oCMt2bY5-84" value="Reviews" style="rounded=0;whiteSpace=wrap;html=1;" vertex="1" parent="WIyWlLk6GJQsqaUBKTNV-1">
          <mxGeometry x="159" y="1790" width="260" height="60" as="geometry" />
        </mxCell>
        <mxCell id="gQ6KmcZ8m3Q4oCMt2bY5-85" value="More similar movies" style="rounded=0;whiteSpace=wrap;html=1;" vertex="1" parent="WIyWlLk6GJQsqaUBKTNV-1">
          <mxGeometry x="159.5" y="1860" width="260" height="60" as="geometry" />
        </mxCell>
        <mxCell id="gQ6KmcZ8m3Q4oCMt2bY5-87" value="Extended preview" style="text;html=1;align=center;verticalAlign=middle;resizable=0;points=[];autosize=1;strokeColor=none;fillColor=none;" vertex="1" parent="WIyWlLk6GJQsqaUBKTNV-1">
          <mxGeometry x="230" y="1448" width="120" height="30" as="geometry" />
        </mxCell>
      </root>
    </mxGraphModel>
  </diagram>
</mxfile>
